<svg width="32" height="32" viewBox="0 0 32 32" fill="none" xmlns="http://www.w3.org/2000/svg">
<rect width="32" height="32" rx="16" fill="#141718"/>
<path fill-rule="evenodd" clip-rule="evenodd" d="M18.0909 11.2652C18.4968 10.8906 19.1294 10.9159 19.504 11.3217L22.7348 14.8217C23.0884 15.2047 23.0884 15.7952 22.7348 16.1782L19.504 19.6783C19.1294 20.0841 18.4968 20.1094 18.091 19.7348C17.6851 19.3602 17.6598 18.7276 18.0344 18.3217L19.716 16.5L10 16.5C9.44771 16.5 9 16.0523 9 15.5C9 14.9477 9.44771 14.5 10 14.5L19.716 14.5L18.0344 12.6783C17.6598 12.2725 17.6851 11.6398 18.0909 11.2652Z" fill="#FEFEFE"/>
</svg>
