<svg width="32" height="32" viewBox="0 0 32 32" fill="none" xmlns="http://www.w3.org/2000/svg">
<g id="outline/call">
<path id="Rectangle 77" d="M28 25.3333V23.1388C28 22.0483 27.3361 21.0678 26.3237 20.6628L23.6115 19.5779C22.3238 19.0629 20.8563 19.6208 20.236 20.8613L20 21.3333C20 21.3333 16.6667 20.6667 14 18C11.3333 15.3333 10.6667 12 10.6667 12L11.1387 11.764C12.3792 11.1437 12.9371 9.67618 12.4221 8.38848L11.3372 5.67629C10.9322 4.66387 9.95166 4 8.86125 4H6.66667C5.19391 4 4 5.19391 4 6.66667C4 18.4487 13.5513 28 25.3333 28C26.8061 28 28 26.8061 28 25.3333Z" stroke="#141718" stroke-width="2.5" stroke-linejoin="round"/>
</g>
</svg>
