<svg width="17" height="16" viewBox="0 0 17 16" fill="none" xmlns="http://www.w3.org/2000/svg">
<path d="M14.512 9.89042L14.2667 10.5991L14.2667 10.5991L14.512 9.89042ZM14.5121 6.10958L14.7574 6.81831L14.5121 6.10958ZM2.48791 9.89042L2.73328 10.5991H2.73328L2.48791 9.89042ZM2.48791 6.10958L2.24254 6.81831H2.24254L2.48791 6.10958ZM11.0303 6.53033C11.3232 6.23744 11.3232 5.76256 11.0303 5.46967C10.7374 5.17678 10.2625 5.17678 9.96965 5.46967L11.0303 6.53033ZM5.96965 9.46967C5.67676 9.76256 5.67676 10.2374 5.96965 10.5303C6.26254 10.8232 6.73742 10.8232 7.03031 10.5303L5.96965 9.46967ZM4.49998 13.25C3.44143 13.25 2.58331 12.3919 2.58331 11.3333H1.08331C1.08331 13.2203 2.61301 14.75 4.49998 14.75V13.25ZM14.4166 11.3333C14.4166 12.3919 13.5585 13.25 12.5 13.25V14.75C14.387 14.75 15.9166 13.2203 15.9166 11.3333H14.4166ZM12.5 2.75C13.5585 2.75 14.4166 3.60812 14.4166 4.66667H15.9166C15.9166 2.77969 14.387 1.25 12.5 1.25V2.75ZM4.49998 1.25C2.61301 1.25 1.08331 2.77969 1.08331 4.66667H2.58331C2.58331 3.60812 3.44143 2.75 4.49998 2.75V1.25ZM14.7574 9.18169C14.267 9.01191 13.9166 8.54591 13.9166 8H12.4166C12.4166 9.20473 13.1909 10.2267 14.2667 10.5991L14.7574 9.18169ZM13.9166 8C13.9166 7.45409 14.267 6.98809 14.7574 6.81831L14.2667 5.40086C13.1909 5.77332 12.4166 6.79527 12.4166 8H13.9166ZM3.08331 8C3.08331 8.54591 2.73292 9.01191 2.24254 9.18169L2.73328 10.5991C3.80908 10.2267 4.58331 9.20473 4.58331 8H3.08331ZM2.24254 6.81831C2.73292 6.98809 3.08331 7.45409 3.08331 8H4.58331C4.58331 6.79527 3.80908 5.77332 2.73328 5.40086L2.24254 6.81831ZM15.9166 5.33333V4.66667H14.4166V5.33333H15.9166ZM14.4166 10.6667V11.3333H15.9166V10.6667H14.4166ZM1.08331 10.6667V11.3333H2.58331V10.6667H1.08331ZM2.58331 5.33333V4.66667H1.08331V5.33333H2.58331ZM12.5 13.25H4.49998V14.75H12.5V13.25ZM12.5 1.25H4.49998V2.75H12.5V1.25ZM2.24254 9.18169C1.73782 9.35643 1.08331 9.84831 1.08331 10.6667H2.58331C2.58331 10.6809 2.57995 10.6932 2.57715 10.6998C2.57494 10.705 2.57577 10.7005 2.58662 10.6885C2.61142 10.661 2.66274 10.6236 2.73328 10.5991L2.24254 9.18169ZM14.7574 6.81831C15.2621 6.64357 15.9166 6.15169 15.9166 5.33333H14.4166C14.4166 5.31907 14.42 5.30681 14.4228 5.30022C14.425 5.29499 14.4242 5.29953 14.4133 5.31154C14.3885 5.33899 14.3372 5.37643 14.2667 5.40086L14.7574 6.81831ZM2.73328 5.40086C2.66274 5.37643 2.61142 5.33899 2.58662 5.31154C2.57577 5.29953 2.57494 5.29499 2.57715 5.30022C2.57995 5.30681 2.58331 5.31907 2.58331 5.33333H1.08331C1.08331 6.15169 1.73782 6.64357 2.24254 6.81831L2.73328 5.40086ZM14.2667 10.5991C14.3372 10.6236 14.3885 10.661 14.4133 10.6885C14.4242 10.7005 14.425 10.705 14.4228 10.6998C14.42 10.6932 14.4166 10.6809 14.4166 10.6667H15.9166C15.9166 9.84831 15.2621 9.35643 14.7574 9.18169L14.2667 10.5991ZM6.41665 6C6.41665 5.95398 6.45396 5.91667 6.49998 5.91667V7.41667C7.28238 7.41667 7.91665 6.7824 7.91665 6H6.41665ZM6.49998 5.91667C6.546 5.91667 6.58331 5.95398 6.58331 6H5.08331C5.08331 6.7824 5.71758 7.41667 6.49998 7.41667V5.91667ZM6.58331 6C6.58331 6.04602 6.546 6.08333 6.49998 6.08333V4.58333C5.71758 4.58333 5.08331 5.2176 5.08331 6H6.58331ZM6.49998 6.08333C6.45396 6.08333 6.41665 6.04602 6.41665 6H7.91665C7.91665 5.2176 7.28238 4.58333 6.49998 4.58333V6.08333ZM10.4166 10C10.4166 9.95398 10.454 9.91667 10.5 9.91667V11.4167C11.2824 11.4167 11.9166 10.7824 11.9166 10H10.4166ZM10.5 9.91667C10.546 9.91667 10.5833 9.95398 10.5833 10H9.08331C9.08331 10.7824 9.71758 11.4167 10.5 11.4167V9.91667ZM10.5833 10C10.5833 10.046 10.546 10.0833 10.5 10.0833V8.58333C9.71758 8.58333 9.08331 9.2176 9.08331 10H10.5833ZM10.5 10.0833C10.454 10.0833 10.4166 10.046 10.4166 10H11.9166C11.9166 9.2176 11.2824 8.58333 10.5 8.58333V10.0833ZM9.96965 5.46967L5.96965 9.46967L7.03031 10.5303L11.0303 6.53033L9.96965 5.46967Z" fill="#141718"/>
</svg>
