<svg width="32" height="32" viewBox="0 0 32 32" fill="none" xmlns="http://www.w3.org/2000/svg">
<path d="M26.6666 16V24C26.6666 26.9455 24.2788 29.3333 21.3333 29.3333H10.6666C7.72113 29.3333 5.33331 26.9455 5.33331 24V16" stroke="#141718" stroke-width="2.5" stroke-linejoin="round"/>
<path d="M22.3583 2.66797H9.64165C7.21851 2.66797 5.03949 4.32764 4.13956 6.8587L3.12892 9.70113C2.82299 10.5616 2.61152 11.4823 2.83466 12.3678C3.36312 14.465 5.07762 16.0013 7.11108 16.0013C9.56568 16.0013 11.5555 13.7627 11.5555 11.0013C11.5555 13.7627 13.5454 16.0013 16 16.0013C18.4546 16.0013 20.4444 13.7627 20.4444 11.0013C20.4444 13.7627 22.4343 16.0013 24.8889 16.0013C26.9223 16.0013 28.6368 14.465 29.1653 12.3678C29.3884 11.4823 29.1769 10.5616 28.871 9.70113L27.8604 6.8587C26.9604 4.32764 24.7814 2.66797 22.3583 2.66797Z" stroke="#141718" stroke-width="2.5" stroke-linejoin="round"/>
<path d="M12 25.332C12 23.1229 13.7909 21.332 16 21.332C18.2091 21.332 20 23.1229 20 25.332V29.332H12V25.332Z" stroke="#141718" stroke-width="2.5" stroke-linejoin="round"/>
</svg>
