<svg width="21" height="17" viewBox="0 0 21 17" fill="none" xmlns="http://www.w3.org/2000/svg">
<path d="M19.128 1.66341C16.9099 -0.55417 13.3013 -0.55417 11.0838 1.66341L10.5687 2.17818L10.0539 1.66341C7.83634 -0.55447 4.22752 -0.55447 2.00994 1.66341C-0.162618 3.83597 -0.176725 7.2797 1.97722 9.67407C3.94177 11.8571 9.73575 16.5735 9.98158 16.7731C10.1485 16.9088 10.3493 16.9749 10.5489 16.9749C10.5555 16.9749 10.5621 16.9749 10.5684 16.9746C10.7749 16.9842 10.9829 16.9133 11.1552 16.7731C11.401 16.5735 17.1956 11.8571 19.1608 9.67377C21.3144 7.2797 21.3003 3.83597 19.128 1.66341ZM17.822 8.46923C16.2903 10.1708 12.08 13.6803 10.5684 14.9257C9.05679 13.6806 4.84735 10.1714 3.31593 8.46953C1.81333 6.79944 1.79923 4.42098 3.28322 2.93699C4.04112 2.17938 5.03645 1.80028 6.03178 1.80028C7.02711 1.80028 8.02244 2.17908 8.78034 2.93699L9.91254 4.06919C10.0473 4.20396 10.2172 4.2844 10.3955 4.31262C10.6849 4.37475 10.9988 4.29401 11.2239 4.06949L12.3567 2.93699C13.8728 1.42148 16.339 1.42178 17.8542 2.93699C19.3382 4.42098 19.324 6.79944 17.822 8.46923Z" fill="#858FA4"/>
</svg>
