<svg width="20" height="20" viewBox="0 0 20 20" fill="none" xmlns="http://www.w3.org/2000/svg">
<g id="icons/Heart/Line">
<path id="Shape" fill-rule="evenodd" clip-rule="evenodd" d="M10.577 5.76422C10.2545 6.07365 9.74542 6.07365 9.42298 5.76422L8.84598 5.2105C8.17062 4.56239 7.25826 4.16667 6.24998 4.16667C4.17891 4.16667 2.49998 5.8456 2.49998 7.91667C2.49998 9.90219 3.5748 11.5417 5.12644 12.8888C6.67941 14.237 8.53615 15.1312 9.64552 15.5876C9.87748 15.683 10.1225 15.683 10.3544 15.5876C11.4638 15.1312 13.3205 14.237 14.8735 12.8888C16.4252 11.5417 17.5 9.90218 17.5 7.91667C17.5 5.8456 15.821 4.16667 13.75 4.16667C12.7417 4.16667 11.8293 4.56239 11.154 5.2105L10.577 5.76422ZM9.99998 4.00798C9.02673 3.074 7.70539 2.5 6.24998 2.5C3.25844 2.5 0.833313 4.92512 0.833313 7.91667C0.833313 13.2235 6.64193 16.1542 9.01147 17.1289C9.64962 17.3914 10.3503 17.3914 10.9885 17.1289C13.358 16.1542 19.1666 13.2235 19.1666 7.91667C19.1666 4.92512 16.7415 2.5 13.75 2.5C12.2946 2.5 10.9732 3.074 9.99998 4.00798Z" fill="#6C7275"/>
</g>
</svg>
