<svg width="18" height="14" viewBox="0 0 18 14" fill="none" xmlns="http://www.w3.org/2000/svg">
<path d="M16.1264 1.37185C14.2775 -0.457036 11.2697 -0.457036 9.42135 1.37185L8.99203 1.7964L8.56296 1.37185C6.71458 -0.457284 3.70657 -0.457284 1.85819 1.37185C0.0473314 3.16361 0.0355724 6.00373 1.83092 7.97842C3.46839 9.77884 8.29776 13.6686 8.50266 13.8332C8.64177 13.9451 8.80914 13.9995 8.97552 13.9995C8.98102 13.9995 8.98653 13.9995 8.99178 13.9993C9.16391 14.0072 9.33729 13.9488 9.4809 13.8332C9.6858 13.6686 14.5157 9.77884 16.1536 7.97817C17.9487 6.00373 17.937 3.16361 16.1264 1.37185Z" fill="#F53B49"/>
</svg>
