<svg width="16" height="16" viewBox="0 0 16 16" fill="none" xmlns="http://www.w3.org/2000/svg">
<path fill-rule="evenodd" clip-rule="evenodd" d="M8.46168 4.61137C8.20373 4.85892 7.79643 4.85892 7.53848 4.61137L7.07688 4.1684C6.5366 3.64992 5.80671 3.33333 5.00008 3.33333C3.34323 3.33333 2.00008 4.67648 2.00008 6.33333C2.00008 7.92175 2.85994 9.23337 4.10125 10.311C5.34363 11.3896 6.82901 12.105 7.71651 12.47C7.90208 12.5464 8.09808 12.5464 8.28365 12.47C9.17115 12.105 10.6565 11.3896 11.8989 10.311C13.1402 9.23337 14.0001 7.92175 14.0001 6.33333C14.0001 4.67648 12.6569 3.33333 11.0001 3.33333C10.1935 3.33333 9.46357 3.64991 8.92328 4.1684L8.46168 4.61137ZM8.00008 3.20638C7.22149 2.4592 6.16441 2 5.00008 2C2.60685 2 0.666748 3.9401 0.666748 6.33333C0.666748 10.5788 5.31364 12.9233 7.20928 13.7031C7.71979 13.9131 8.28037 13.9131 8.79089 13.7031C10.6865 12.9233 15.3334 10.5788 15.3334 6.33333C15.3334 3.9401 13.3933 2 11.0001 2C9.83575 2 8.77868 2.4592 8.00008 3.20638Z" fill="#141718"/>
</svg>
